<svg xmlns="http://www.w3.org/2000/svg" viewBox="0 0 1254 1254">

  <!-- Fundo roxo escuro -->
  <rect width="1254" height="1254" rx="200" fill="#160825"/>

  <!-- Círculo balão de chat (roxo) -->
  <path d="M627 148 C376 148 172 320 172 530 C172 640 222 738 306 808 L270 1060 L490 940 C533 950 579 956 627 956 C878 956 1082 784 1082 574 C1082 364 878 192 627 192" fill="none" stroke="#7C3AED" stroke-width="58" stroke-linecap="round" stroke-linejoin="round"/>

  <!-- Sinal WiFi verde -->
  <path d="M290 218 Q355 155 435 162" fill="none" stroke="#22c55e" stroke-width="48" stroke-linecap="round"/>
  <path d="M252 268 Q338 188 448 196" fill="none" stroke="#22c55e" stroke-width="36" stroke-linecap="round" opacity="0.75"/>

  <!-- F chama branco — paths originais com inícios convertidos para absoluto -->
  <g transform="translate(0,1254) scale(0.1,-0.1)" fill="white">
    <path d="
      M8736 10007
      c133 -200 229 -423 271 -632 27 -138 25 -424 -5 -571
      -106 -529 -390 -930 -775 -1097 -190 -81 -350 -109 -762 -132
      -566 -31 -879 -81 -1199 -191 -228 -79 -521 -243 -695 -388
      -97 -81 -270 -259 -345 -356 -33 -41 -62 -79 -66 -83
      -10 -11 -91 148 -133 263 -19 52 -45 146 -57 209
      -20 100 -22 134 -17 285 4 137 10 190 30 267
      115 444 410 776 879 990 206 94 381 149 838 264
      386 97 563 151 785 238 431 168 779 419 959 690
      59 88 140 249 170 336 l18 55 19 -25 c11 -13 49 -68 85 -122 z

      M5205 9804
      c49 -23 69 -68 63 -143 -4 -53 -9 -67 -35 -93
      -30 -30 -33 -31 -189 -44 -388 -34 -664 -134 -943 -344
      -192 -145 -387 -385 -479 -590 -34 -77 -91 -244 -98 -291
      -23 -142 -253 -155 -279 -15 -6 27 2 67 29 159
      87 289 236 543 451 766 343 356 798 566 1300 601
      61 4 118 8 128 9 11 0 34 -6 52 -15 z

      M5111 9152
      c23 -26 29 -42 29 -77 0 -102 -46 -148 -158 -159
      -147 -15 -261 -46 -377 -104 -196 -97 -359 -273 -435 -469
      -42 -106 -53 -125 -92 -145 -90 -49 -208 6 -208 96
      0 36 53 176 96 255 81 149 221 305 364 406
      147 104 351 188 520 215 41 6 82 13 90 15
      8 2 44 3 79 1 58 -2 66 -5 92 -34 z

      M4962 8568
      c48 -39 40 -84 -29 -165 -26 -30 -73 -92 -103 -137
      l-55 -81 -123 -3 c-119 -3 -123 -2 -147 22
      -14 14 -25 36 -25 49 0 50 70 146 155 213
      103 81 283 136 327 102 z

      M7518 7154
      c223 -44 392 -201 449 -415 22 -83 21 -250 -1 -344
      -51 -213 -206 -378 -396 -425 -25 -6 -144 -15 -265 -20
      -239 -9 -345 -24 -502 -70 -620 -181 -1038 -688 -1129 -1370
      -19 -147 -15 -391 11 -563 9 -59 15 -114 13 -122
      -2 -8 -41 33 -90 95 -451 564 -620 1144 -497 1705
      119 543 474 995 999 1274 239 126 542 216 870 256
      154 19 443 19 538 -1 z
    "/>
  </g>

</svg>
