<?xml version="1.0" standalone="no"?>
<!DOCTYPE svg PUBLIC "-//W3C//DTD SVG 20010904//EN"
 "http://www.w3.org/TR/2001/REC-SVG-20010904/DTD/svg10.dtd">
<svg version="1.0" xmlns="http://www.w3.org/2000/svg"
 width="1254.000000pt" height="1254.000000pt" viewBox="0 0 1254.000000 1254.000000"
 preserveAspectRatio="xMidYMid meet">

<g transform="translate(0.000000,1254.000000) scale(0.100000,-0.100000)"
fill="#000000" stroke="none">
<path d="M0 6270 l0 -6270 6270 0 6270 0 0 6270 0 6270 -6270 0 -6270 0 0
-6270z m8736 3737 c133 -200 229 -423 271 -632 27 -138 25 -424 -5 -571 -106
-529 -390 -930 -775 -1097 -190 -81 -350 -109 -762 -132 -566 -31 -879 -81
-1199 -191 -228 -79 -521 -243 -695 -388 -97 -81 -270 -259 -345 -356 -33 -41
-62 -79 -66 -83 -10 -11 -91 148 -133 263 -19 52 -45 146 -57 209 -20 100 -22
134 -17 285 4 137 10 190 30 267 115 444 410 776 879 990 206 94 381 149 838
264 386 97 563 151 785 238 431 168 779 419 959 690 59 88 140 249 170 336
l18 55 19 -25 c11 -13 49 -68 85 -122z m-3531 -203 c49 -23 69 -68 63 -143 -4
-53 -9 -67 -35 -93 -30 -30 -33 -31 -189 -44 -388 -34 -664 -134 -943 -344
-192 -145 -387 -385 -479 -590 -34 -77 -91 -244 -98 -291 -23 -142 -253 -155
-279 -15 -6 27 2 67 29 159 87 289 236 543 451 766 343 356 798 566 1300 601
61 4 118 8 128 9 11 0 34 -6 52 -15z m-94 -652 c23 -26 29 -42 29 -77 0 -102
-46 -148 -158 -159 -147 -15 -261 -46 -377 -104 -196 -97 -359 -273 -435 -469
-42 -106 -53 -125 -92 -145 -90 -49 -208 6 -208 96 0 36 53 176 96 255 81 149
221 305 364 406 147 104 351 188 520 215 41 6 82 13 90 15 8 2 44 3 79 1 58
-2 66 -5 92 -34z m-149 -584 c48 -39 40 -84 -29 -165 -26 -30 -73 -92 -103
-137 l-55 -81 -123 -3 c-119 -3 -123 -2 -147 22 -14 14 -25 36 -25 49 0 50 70
146 155 213 103 81 283 136 327 102z m2556 -1414 c223 -44 392 -201 449 -415
22 -83 21 -250 -1 -344 -51 -213 -206 -378 -396 -425 -25 -6 -144 -15 -265
-20 -239 -9 -345 -24 -502 -70 -620 -181 -1038 -688 -1129 -1370 -19 -147 -15
-391 11 -563 9 -59 15 -114 13 -122 -2 -8 -41 33 -90 95 -451 564 -620 1144
-497 1705 119 543 474 995 999 1274 239 126 542 216 870 256 154 19 443 19
538 -1z"/>
</g>
</svg>
